<mxfile host="app.diagrams.net" agent="Mozilla/5.0 (Macintosh; Intel Mac OS X 10_15_7) AppleWebKit/605.1.15 (KHTML, like Gecko) Version/17.5 Safari/605.1.15" version="24.7.7">
  <diagram name="Page-1" id="lLyabMQEXQ9imE6EM3v9">
    <mxGraphModel dx="938" dy="733" grid="1" gridSize="10" guides="1" tooltips="1" connect="1" arrows="1" fold="1" page="1" pageScale="1" pageWidth="827" pageHeight="1169" background="#FFFFFF" math="0" shadow="0">
      <root>
        <mxCell id="0" />
        <mxCell id="1" parent="0" />
        <mxCell id="QlCUB4jWWU4fkNiN9hsf-1" style="edgeStyle=orthogonalEdgeStyle;rounded=1;orthogonalLoop=1;jettySize=auto;html=1;exitX=0.5;exitY=1;exitDx=0;exitDy=0;entryX=0.5;entryY=0;entryDx=0;entryDy=0;fontFamily=Figtree;fontSource=https%3A%2F%2Ffonts.googleapis.com%2Fcss%3Ffamily%3DFigtree;fontSize=8;curved=0;" parent="1" source="QlCUB4jWWU4fkNiN9hsf-4" target="QlCUB4jWWU4fkNiN9hsf-7" edge="1">
          <mxGeometry relative="1" as="geometry">
            <Array as="points">
              <mxPoint x="408" y="200" />
              <mxPoint x="320" y="200" />
            </Array>
          </mxGeometry>
        </mxCell>
        <mxCell id="QlCUB4jWWU4fkNiN9hsf-2" style="edgeStyle=orthogonalEdgeStyle;rounded=1;orthogonalLoop=1;jettySize=auto;html=1;exitX=0.5;exitY=1;exitDx=0;exitDy=0;entryX=0.5;entryY=0;entryDx=0;entryDy=0;curved=0;fontFamily=Figtree;fontSource=https%3A%2F%2Ffonts.googleapis.com%2Fcss%3Ffamily%3DFigtree;fontSize=8;" parent="1" source="QlCUB4jWWU4fkNiN9hsf-4" target="QlCUB4jWWU4fkNiN9hsf-5" edge="1">
          <mxGeometry relative="1" as="geometry">
            <Array as="points">
              <mxPoint x="409" y="200" />
              <mxPoint x="120" y="200" />
            </Array>
          </mxGeometry>
        </mxCell>
        <mxCell id="QlCUB4jWWU4fkNiN9hsf-48" value="Scope or&amp;nbsp;&lt;div style=&quot;font-size: 8px;&quot;&gt;breaking change&lt;/div&gt;" style="edgeLabel;html=1;align=center;verticalAlign=middle;resizable=0;points=[];fontFamily=Figtree;fontSource=https%3A%2F%2Ffonts.googleapis.com%2Fcss%3Ffamily%3DFigtree;labelBackgroundColor=#FFFFFF;fontSize=8;" parent="QlCUB4jWWU4fkNiN9hsf-2" vertex="1" connectable="0">
          <mxGeometry x="0.0654" y="-2" relative="1" as="geometry">
            <mxPoint x="-9" y="2" as="offset" />
          </mxGeometry>
        </mxCell>
        <mxCell id="QlCUB4jWWU4fkNiN9hsf-3" style="edgeStyle=orthogonalEdgeStyle;rounded=1;orthogonalLoop=1;jettySize=auto;html=1;exitX=0.5;exitY=1;exitDx=0;exitDy=0;entryX=0.5;entryY=0;entryDx=0;entryDy=0;curved=0;fontFamily=Figtree;fontSource=https%3A%2F%2Ffonts.googleapis.com%2Fcss%3Ffamily%3DFigtree;fontSize=8;" parent="1" source="QlCUB4jWWU4fkNiN9hsf-4" target="QlCUB4jWWU4fkNiN9hsf-11" edge="1">
          <mxGeometry relative="1" as="geometry" />
        </mxCell>
        <UserObject label="&lt;font color=&quot;#ffffff&quot; style=&quot;font-size: 8px;&quot;&gt;Type of change? (#23)&lt;/font&gt;" link="#point23" id="QlCUB4jWWU4fkNiN9hsf-4">
          <mxCell style="rhombus;whiteSpace=wrap;html=1;strokeColor=none;fillColor=#1b75bb;fontFamily=Figtree;fontSource=https%3A%2F%2Ffonts.googleapis.com%2Fcss%3Ffamily%3DFigtree;fontSize=8;" parent="1" vertex="1">
            <mxGeometry x="328.5" y="100" width="160" height="80" as="geometry" />
          </mxCell>
        </UserObject>
        <UserObject label="&lt;font style=&quot;font-size: 8px;&quot; data-font-src=&quot;https://fonts.googleapis.com/css?family=Figtree&quot; color=&quot;#ffffff&quot;&gt;Proceed to STUDY&lt;/font&gt;" link="#section_4" id="QlCUB4jWWU4fkNiN9hsf-5">
          <mxCell style="rounded=0;whiteSpace=wrap;html=1;strokeColor=none;fillColor=#9f79b0;fontFamily=Figtree;fontSource=https%3A%2F%2Ffonts.googleapis.com%2Fcss%3Ffamily%3DFigtree;fontSize=8;" parent="1" vertex="1">
            <mxGeometry x="40" y="240" width="160" height="50" as="geometry" />
          </mxCell>
        </UserObject>
        <mxCell id="QlCUB4jWWU4fkNiN9hsf-6" style="edgeStyle=orthogonalEdgeStyle;rounded=0;orthogonalLoop=1;jettySize=auto;html=1;exitX=0.5;exitY=1;exitDx=0;exitDy=0;entryX=0.5;entryY=0;entryDx=0;entryDy=0;fontSize=8;fontFamily=Figtree;fontSource=https%3A%2F%2Ffonts.googleapis.com%2Fcss%3Ffamily%3DFigtree;" parent="1" source="QlCUB4jWWU4fkNiN9hsf-7" target="QlCUB4jWWU4fkNiN9hsf-20" edge="1">
          <mxGeometry relative="1" as="geometry" />
        </mxCell>
        <UserObject label="&lt;font style=&quot;font-size: 8px;&quot; data-font-src=&quot;https://fonts.googleapis.com/css?family=Figtree&quot; color=&quot;#ffffff&quot;&gt;Urgent fix (#24)&lt;/font&gt;&lt;div style=&quot;font-size: 8px;&quot;&gt;&lt;font style=&quot;font-size: 8px;&quot; data-font-src=&quot;https://fonts.googleapis.com/css?family=Figtree&quot; color=&quot;#ffffff&quot;&gt;* PRC notified immediately&lt;/font&gt;&lt;/div&gt;&lt;div style=&quot;font-size: 8px;&quot;&gt;&lt;font style=&quot;font-size: 8px;&quot; data-font-src=&quot;https://fonts.googleapis.com/css?family=Figtree&quot; color=&quot;#ffffff&quot;&gt;* Group develops a solution&lt;/font&gt;&lt;/div&gt;" link="#point24" id="QlCUB4jWWU4fkNiN9hsf-7">
          <mxCell style="rounded=0;whiteSpace=wrap;html=1;strokeColor=none;fillColor=#4FAEDC;fontFamily=Figtree;fontSource=https%3A%2F%2Ffonts.googleapis.com%2Fcss%3Ffamily%3DFigtree;fontSize=8;" parent="1" vertex="1">
            <mxGeometry x="240" y="240" width="160" height="50" as="geometry" />
          </mxCell>
        </UserObject>
        <mxCell id="QlCUB4jWWU4fkNiN9hsf-8" style="edgeStyle=orthogonalEdgeStyle;rounded=1;orthogonalLoop=1;jettySize=auto;html=1;exitX=0.5;exitY=1;exitDx=0;exitDy=0;entryX=1;entryY=0.5;entryDx=0;entryDy=0;curved=0;fontFamily=Figtree;fontSource=https%3A%2F%2Ffonts.googleapis.com%2Fcss%3Ffamily%3DFigtree;fontSize=8;" parent="1" source="QlCUB4jWWU4fkNiN9hsf-11" target="QlCUB4jWWU4fkNiN9hsf-4" edge="1">
          <mxGeometry relative="1" as="geometry">
            <Array as="points">
              <mxPoint x="630" y="310" />
              <mxPoint x="749" y="310" />
              <mxPoint x="749" y="140" />
            </Array>
          </mxGeometry>
        </mxCell>
        <mxCell id="QlCUB4jWWU4fkNiN9hsf-53" value="No" style="edgeLabel;html=1;align=center;verticalAlign=middle;resizable=0;points=[];labelBackgroundColor=#FFFFFF;fontSize=8;fontFamily=Figtree;fontSource=https%3A%2F%2Ffonts.googleapis.com%2Fcss%3Ffamily%3DFigtree;" parent="QlCUB4jWWU4fkNiN9hsf-8" vertex="1" connectable="0">
          <mxGeometry x="-0.9234" y="4" relative="1" as="geometry">
            <mxPoint x="9" y="4" as="offset" />
          </mxGeometry>
        </mxCell>
        <mxCell id="QlCUB4jWWU4fkNiN9hsf-9" style="edgeStyle=orthogonalEdgeStyle;rounded=0;orthogonalLoop=1;jettySize=auto;html=1;exitX=0.5;exitY=1;exitDx=0;exitDy=0;entryX=0.5;entryY=0;entryDx=0;entryDy=0;fontFamily=Figtree;fontSource=https%3A%2F%2Ffonts.googleapis.com%2Fcss%3Ffamily%3DFigtree;fontSize=8;" parent="1" source="QlCUB4jWWU4fkNiN9hsf-11" target="QlCUB4jWWU4fkNiN9hsf-13" edge="1">
          <mxGeometry relative="1" as="geometry" />
        </mxCell>
        <mxCell id="QlCUB4jWWU4fkNiN9hsf-10" value="Yes" style="edgeLabel;html=1;align=center;verticalAlign=middle;resizable=0;points=[];labelBackgroundColor=#FFFFFF;fontFamily=Figtree;fontSource=https%3A%2F%2Ffonts.googleapis.com%2Fcss%3Ffamily%3DFigtree;fontSize=8;" parent="QlCUB4jWWU4fkNiN9hsf-9" vertex="1" connectable="0">
          <mxGeometry x="-0.15" y="3" relative="1" as="geometry">
            <mxPoint x="-3" y="5" as="offset" />
          </mxGeometry>
        </mxCell>
        <UserObject label="&lt;span style=&quot;color: rgb(255, 255, 255); font-size: 8px; background-color: initial;&quot;&gt;Track approved? (#29)&lt;/span&gt;" link="#point29" id="QlCUB4jWWU4fkNiN9hsf-11">
          <mxCell style="rhombus;whiteSpace=wrap;html=1;strokeColor=none;fillColor=#1b75bb;fontFamily=Figtree;fontSource=https%3A%2F%2Ffonts.googleapis.com%2Fcss%3Ffamily%3DFigtree;fontSize=8;" parent="1" vertex="1">
            <mxGeometry x="550" y="220" width="160" height="80" as="geometry" />
          </mxCell>
        </UserObject>
        <mxCell id="QlCUB4jWWU4fkNiN9hsf-12" style="edgeStyle=orthogonalEdgeStyle;rounded=1;orthogonalLoop=1;jettySize=auto;html=1;exitX=0.5;exitY=1;exitDx=0;exitDy=0;entryX=0.5;entryY=0;entryDx=0;entryDy=0;fontSize=8;fontFamily=Figtree;fontSource=https%3A%2F%2Ffonts.googleapis.com%2Fcss%3Ffamily%3DFigtree;curved=0;" parent="1" source="QlCUB4jWWU4fkNiN9hsf-13" target="QlCUB4jWWU4fkNiN9hsf-17" edge="1">
          <mxGeometry relative="1" as="geometry" />
        </mxCell>
        <UserObject label="&lt;font color=&quot;#ffffff&quot; style=&quot;font-size: 8px;&quot;&gt;Work on minor candidate version (#30)&lt;/font&gt;" link="#point30" id="QlCUB4jWWU4fkNiN9hsf-13">
          <mxCell style="rounded=0;whiteSpace=wrap;html=1;strokeColor=none;fillColor=#4FAEDC;fontFamily=Figtree;fontSource=https%3A%2F%2Ffonts.googleapis.com%2Fcss%3Ffamily%3DFigtree;fontSize=8;" parent="1" vertex="1">
            <mxGeometry x="550" y="340" width="160" height="50" as="geometry" />
          </mxCell>
        </UserObject>
        <mxCell id="QlCUB4jWWU4fkNiN9hsf-16" style="edgeStyle=orthogonalEdgeStyle;rounded=0;orthogonalLoop=1;jettySize=auto;html=1;exitX=0.5;exitY=1;exitDx=0;exitDy=0;entryX=0.5;entryY=0;entryDx=0;entryDy=0;fontSize=8;fontFamily=Figtree;fontSource=https%3A%2F%2Ffonts.googleapis.com%2Fcss%3Ffamily%3DFigtree;" parent="1" source="QlCUB4jWWU4fkNiN9hsf-17" target="QlCUB4jWWU4fkNiN9hsf-36" edge="1">
          <mxGeometry relative="1" as="geometry" />
        </mxCell>
        <UserObject label="&lt;span style=&quot;color: rgb(255, 255, 255); font-size: 8px; background-color: initial;&quot;&gt;Product group agrees&lt;/span&gt;&lt;div style=&quot;font-size: 8px;&quot;&gt;&lt;span style=&quot;color: rgb(255, 255, 255); font-size: 8px; background-color: initial;&quot;&gt;minor candidate version&lt;/span&gt;&lt;/div&gt;&lt;div style=&quot;font-size: 8px;&quot;&gt;&lt;span style=&quot;color: rgb(255, 255, 255); font-size: 8px; background-color: initial;&quot;&gt;is ready? (#31)&lt;/span&gt;&lt;/div&gt;" link="#point31" id="QlCUB4jWWU4fkNiN9hsf-17">
          <mxCell style="rhombus;whiteSpace=wrap;html=1;strokeColor=none;fillColor=#1b75bb;fontFamily=Figtree;fontSource=https%3A%2F%2Ffonts.googleapis.com%2Fcss%3Ffamily%3DFigtree;fontSize=8;" parent="1" vertex="1">
            <mxGeometry x="460" y="439" width="160" height="80" as="geometry" />
          </mxCell>
        </UserObject>
        <UserObject label="&lt;span style=&quot;color: rgb(255, 255, 255); font-size: 8px; background-color: initial;&quot;&gt;Agree on fix? (#25)&lt;/span&gt;" link="#point25" id="QlCUB4jWWU4fkNiN9hsf-20">
          <mxCell style="rhombus;whiteSpace=wrap;html=1;strokeColor=none;fillColor=#1b75bb;fontFamily=Figtree;fontSource=https%3A%2F%2Ffonts.googleapis.com%2Fcss%3Ffamily%3DFigtree;fontSize=8;" parent="1" vertex="1">
            <mxGeometry x="240" y="325" width="160" height="80" as="geometry" />
          </mxCell>
        </UserObject>
        <mxCell id="QlCUB4jWWU4fkNiN9hsf-21" style="edgeStyle=orthogonalEdgeStyle;rounded=0;orthogonalLoop=1;jettySize=auto;html=1;exitX=0.5;exitY=1;exitDx=0;exitDy=0;entryX=0.5;entryY=0;entryDx=0;entryDy=0;fontSize=8;fontFamily=Figtree;fontSource=https%3A%2F%2Ffonts.googleapis.com%2Fcss%3Ffamily%3DFigtree;" parent="1" source="QlCUB4jWWU4fkNiN9hsf-22" target="QlCUB4jWWU4fkNiN9hsf-27" edge="1">
          <mxGeometry relative="1" as="geometry" />
        </mxCell>
        <UserObject label="&lt;font color=&quot;#ffffff&quot; style=&quot;font-size: 8px;&quot;&gt;Fast track review (#26)&lt;/font&gt;" link="#point26" id="QlCUB4jWWU4fkNiN9hsf-22">
          <mxCell style="rounded=0;whiteSpace=wrap;html=1;strokeColor=none;fillColor=#4FAEDC;fontFamily=Figtree;fontSource=https%3A%2F%2Ffonts.googleapis.com%2Fcss%3Ffamily%3DFigtree;fontSize=8;" parent="1" vertex="1">
            <mxGeometry x="240" y="454" width="160" height="50" as="geometry" />
          </mxCell>
        </UserObject>
        <UserObject label="&lt;font color=&quot;#ffffff&quot; style=&quot;font-size: 8px;&quot;&gt;Resolving remaining issues (#28)&lt;/font&gt;" link="#point28" id="QlCUB4jWWU4fkNiN9hsf-24">
          <mxCell style="rounded=0;whiteSpace=wrap;html=1;strokeColor=none;fillColor=#4FAEDC;fontFamily=Figtree;fontSource=https%3A%2F%2Ffonts.googleapis.com%2Fcss%3Ffamily%3DFigtree;fontSize=8;" parent="1" vertex="1">
            <mxGeometry x="40" y="454" width="160" height="50" as="geometry" />
          </mxCell>
        </UserObject>
        <mxCell id="QlCUB4jWWU4fkNiN9hsf-25" style="edgeStyle=orthogonalEdgeStyle;rounded=0;orthogonalLoop=1;jettySize=auto;html=1;exitX=0.5;exitY=1;exitDx=0;exitDy=0;entryX=0.5;entryY=0;entryDx=0;entryDy=0;fontSize=8;fontFamily=Figtree;fontSource=https%3A%2F%2Ffonts.googleapis.com%2Fcss%3Ffamily%3DFigtree;" parent="1" source="QlCUB4jWWU4fkNiN9hsf-27" target="QlCUB4jWWU4fkNiN9hsf-28" edge="1">
          <mxGeometry relative="1" as="geometry" />
        </mxCell>
        <UserObject label="&lt;font color=&quot;#ffffff&quot; style=&quot;font-size: 8px;&quot;&gt;Approved by PRC? (#27)&lt;/font&gt;" link="#point27" id="QlCUB4jWWU4fkNiN9hsf-27">
          <mxCell style="rhombus;whiteSpace=wrap;html=1;strokeColor=none;fillColor=#1b75bb;fontFamily=Figtree;fontSource=https%3A%2F%2Ffonts.googleapis.com%2Fcss%3Ffamily%3DFigtree;fontSize=8;" parent="1" vertex="1">
            <mxGeometry x="240" y="549" width="160" height="80" as="geometry" />
          </mxCell>
        </UserObject>
        <mxCell id="QlCUB4jWWU4fkNiN9hsf-28" value="&lt;span style=&quot;font-size: 8px;&quot;&gt;&lt;font style=&quot;font-size: 8px;&quot;&gt;Approval leads to a patch release&lt;/font&gt;&lt;/span&gt;" style="rounded=1;whiteSpace=wrap;html=1;absoluteArcSize=0;arcSize=60;strokeColor=none;fillColor=#8cc63e;fontColor=#FFFFFF;fontFamily=Figtree;fontSource=https%3A%2F%2Ffonts.googleapis.com%2Fcss%3Ffamily%3DFigtree;fontSize=8;" parent="1" vertex="1">
          <mxGeometry x="240" y="685" width="160" height="50" as="geometry" />
        </mxCell>
        <mxCell id="QlCUB4jWWU4fkNiN9hsf-29" value="Yes" style="edgeLabel;html=1;align=center;verticalAlign=middle;resizable=0;points=[];labelBackgroundColor=#FFFFFF;fontFamily=Figtree;fontSource=https%3A%2F%2Ffonts.googleapis.com%2Fcss%3Ffamily%3DFigtree;fontSize=8;" parent="1" vertex="1" connectable="0">
          <mxGeometry x="823" y="351" as="geometry">
            <mxPoint x="-504" y="312" as="offset" />
          </mxGeometry>
        </mxCell>
        <mxCell id="QlCUB4jWWU4fkNiN9hsf-32" value="&lt;span style=&quot;font-size: 8px;&quot;&gt;&lt;font style=&quot;font-size: 8px;&quot;&gt;End&lt;/font&gt;&lt;/span&gt;" style="rounded=1;whiteSpace=wrap;html=1;absoluteArcSize=0;arcSize=60;strokeColor=none;fillColor=#767676;fontColor=#FFFFFF;fontFamily=Figtree;fontSource=https%3A%2F%2Ffonts.googleapis.com%2Fcss%3Ffamily%3DFigtree;fontSize=8;" parent="1" vertex="1">
          <mxGeometry x="650" y="504" width="160" height="50" as="geometry" />
        </mxCell>
        <mxCell id="QlCUB4jWWU4fkNiN9hsf-35" style="edgeStyle=orthogonalEdgeStyle;rounded=0;orthogonalLoop=1;jettySize=auto;html=1;exitX=0.5;exitY=1;exitDx=0;exitDy=0;entryX=0.5;entryY=0;entryDx=0;entryDy=0;fontSize=8;fontFamily=Figtree;fontSource=https%3A%2F%2Ffonts.googleapis.com%2Fcss%3Ffamily%3DFigtree;" parent="1" source="QlCUB4jWWU4fkNiN9hsf-36" target="QlCUB4jWWU4fkNiN9hsf-42" edge="1">
          <mxGeometry relative="1" as="geometry" />
        </mxCell>
        <UserObject label="&lt;font color=&quot;#ffffff&quot; style=&quot;font-size: 8px;&quot;&gt;Product Review Committee&lt;/font&gt;&lt;div style=&quot;font-size: 8px;&quot;&gt;&lt;font color=&quot;#ffffff&quot; style=&quot;font-size: 8px;&quot;&gt;and public review (#32)&lt;/font&gt;&lt;/div&gt;" link="#point32" id="QlCUB4jWWU4fkNiN9hsf-36">
          <mxCell style="rounded=0;whiteSpace=wrap;html=1;strokeColor=none;fillColor=#4FAEDC;fontFamily=Figtree;fontSource=https%3A%2F%2Ffonts.googleapis.com%2Fcss%3Ffamily%3DFigtree;fontSize=8;" parent="1" vertex="1">
            <mxGeometry x="460" y="564" width="160" height="50" as="geometry" />
          </mxCell>
        </UserObject>
        <mxCell id="QlCUB4jWWU4fkNiN9hsf-37" value="Yes" style="edgeLabel;html=1;align=center;verticalAlign=middle;resizable=0;points=[];labelBackgroundColor=#FFFFFF;fontFamily=Figtree;fontSource=https%3A%2F%2Ffonts.googleapis.com%2Fcss%3Ffamily%3DFigtree;fontSize=8;" parent="1" vertex="1" connectable="0">
          <mxGeometry x="550" y="351" as="geometry">
            <mxPoint x="-11" y="193" as="offset" />
          </mxGeometry>
        </mxCell>
        <mxCell id="QlCUB4jWWU4fkNiN9hsf-40" style="edgeStyle=orthogonalEdgeStyle;rounded=0;orthogonalLoop=1;jettySize=auto;html=1;exitX=0.5;exitY=1;exitDx=0;exitDy=0;entryX=0.5;entryY=0;entryDx=0;entryDy=0;fontSize=8;fontFamily=Figtree;fontSource=https%3A%2F%2Ffonts.googleapis.com%2Fcss%3Ffamily%3DFigtree;" parent="1" source="QlCUB4jWWU4fkNiN9hsf-42" target="QlCUB4jWWU4fkNiN9hsf-43" edge="1">
          <mxGeometry relative="1" as="geometry" />
        </mxCell>
        <mxCell id="QlCUB4jWWU4fkNiN9hsf-41" value="Yes" style="edgeLabel;html=1;align=center;verticalAlign=middle;resizable=0;points=[];fontSize=8;fontFamily=Figtree;fontSource=https%3A%2F%2Ffonts.googleapis.com%2Fcss%3Ffamily%3DFigtree;labelBackgroundColor=#FFFFFF;" parent="QlCUB4jWWU4fkNiN9hsf-40" vertex="1" connectable="0">
          <mxGeometry x="-0.117" y="3" relative="1" as="geometry">
            <mxPoint x="-3" y="6" as="offset" />
          </mxGeometry>
        </mxCell>
        <UserObject label="&lt;span style=&quot;background-color: initial; color: rgb(255, 255, 255); font-size: 8px;&quot;&gt;Approved by&amp;nbsp;&lt;/span&gt;&lt;div&gt;&lt;span style=&quot;background-color: initial; color: rgb(255, 255, 255); font-size: 8px;&quot;&gt;Product Review Committee?&lt;/span&gt;&lt;/div&gt;&lt;div&gt;&lt;span style=&quot;background-color: initial; color: rgb(255, 255, 255); font-size: 8px;&quot;&gt;(#33)&lt;/span&gt;&lt;/div&gt;" link="#point33" id="QlCUB4jWWU4fkNiN9hsf-42">
          <mxCell style="rhombus;whiteSpace=wrap;html=1;strokeColor=none;fillColor=#1b75bb;fontFamily=Figtree;fontSource=https%3A%2F%2Ffonts.googleapis.com%2Fcss%3Ffamily%3DFigtree;fontSize=8;" parent="1" vertex="1">
            <mxGeometry x="460" y="654" width="160" height="80" as="geometry" />
          </mxCell>
        </UserObject>
        <mxCell id="QlCUB4jWWU4fkNiN9hsf-43" value="&lt;span style=&quot;font-size: 8px;&quot;&gt;&lt;font style=&quot;font-size: 8px;&quot;&gt;Approval leads to a minor version release.&lt;/font&gt;&lt;/span&gt;&lt;div style=&quot;font-size: 8px;&quot;&gt;&lt;span style=&quot;font-size: 8px;&quot;&gt;&lt;font style=&quot;font-size: 8px;&quot;&gt;Product group works with the GA4GH&lt;/font&gt;&lt;/span&gt;&lt;/div&gt;&lt;div style=&quot;font-size: 8px;&quot;&gt;&lt;span style=&quot;font-size: 8px;&quot;&gt;&lt;font style=&quot;font-size: 8px;&quot;&gt;Communications team to promote product.&lt;/font&gt;&lt;/span&gt;&lt;/div&gt;" style="rounded=1;whiteSpace=wrap;html=1;absoluteArcSize=0;arcSize=60;strokeColor=none;fillColor=#8cc63e;fontColor=#FFFFFF;fontFamily=Figtree;fontSource=https%3A%2F%2Ffonts.googleapis.com%2Fcss%3Ffamily%3DFigtree;fontSize=8;" parent="1" vertex="1">
          <mxGeometry x="450" y="779" width="180" height="50" as="geometry" />
        </mxCell>
        <mxCell id="QlCUB4jWWU4fkNiN9hsf-47" style="edgeStyle=orthogonalEdgeStyle;rounded=0;orthogonalLoop=1;jettySize=auto;html=1;exitX=0.5;exitY=1;exitDx=0;exitDy=0;entryX=0.5;entryY=0;entryDx=0;entryDy=0;" parent="1" source="QlCUB4jWWU4fkNiN9hsf-46" target="QlCUB4jWWU4fkNiN9hsf-4" edge="1">
          <mxGeometry relative="1" as="geometry" />
        </mxCell>
        <mxCell id="QlCUB4jWWU4fkNiN9hsf-46" value="&lt;p style=&quot;line-height: 100%; font-size: 8px;&quot;&gt;Start here&lt;/p&gt;" style="rounded=1;whiteSpace=wrap;absoluteArcSize=0;arcSize=60;fontFamily=Figtree;fontSource=https%3A%2F%2Ffonts.googleapis.com%2Fcss%3Ffamily%3DFigtree;fontSize=8;html=1;fillColor=#f5f5f5;fontColor=#333333;strokeColor=#666666;" parent="1" vertex="1">
          <mxGeometry x="313.5" y="30" width="190" height="40" as="geometry" />
        </mxCell>
        <mxCell id="QlCUB4jWWU4fkNiN9hsf-49" value="Urgent fix" style="edgeLabel;html=1;align=center;verticalAlign=middle;resizable=0;points=[];fontFamily=Figtree;fontSource=https%3A%2F%2Ffonts.googleapis.com%2Fcss%3Ffamily%3DFigtree;labelBackgroundColor=#FFFFFF;fontSize=8;" parent="1" vertex="1" connectable="0">
          <mxGeometry x="320" y="220" as="geometry">
            <mxPoint x="-1" y="-2" as="offset" />
          </mxGeometry>
        </mxCell>
        <mxCell id="QlCUB4jWWU4fkNiN9hsf-50" value="Continued&lt;div&gt;development&lt;/div&gt;" style="edgeLabel;html=1;align=center;verticalAlign=middle;resizable=0;points=[];fontFamily=Figtree;fontSource=https%3A%2F%2Ffonts.googleapis.com%2Fcss%3Ffamily%3DFigtree;labelBackgroundColor=#FFFFFF;fontSize=8;" parent="1" vertex="1" connectable="0">
          <mxGeometry x="510" y="206" as="geometry">
            <mxPoint x="5" y="-7" as="offset" />
          </mxGeometry>
        </mxCell>
        <mxCell id="U4evvgoyGGCmxNKXx5C2-1" value="" style="endArrow=classic;html=1;rounded=0;exitX=0.5;exitY=1;exitDx=0;exitDy=0;entryX=0.5;entryY=0;entryDx=0;entryDy=0;" parent="1" source="QlCUB4jWWU4fkNiN9hsf-20" target="QlCUB4jWWU4fkNiN9hsf-22" edge="1">
          <mxGeometry width="50" height="50" relative="1" as="geometry">
            <mxPoint x="420" y="460" as="sourcePoint" />
            <mxPoint x="470" y="410" as="targetPoint" />
          </mxGeometry>
        </mxCell>
        <mxCell id="U4evvgoyGGCmxNKXx5C2-2" value="" style="endArrow=classic;html=1;rounded=1;exitX=0.5;exitY=1;exitDx=0;exitDy=0;entryX=0.5;entryY=0;entryDx=0;entryDy=0;curved=0;" parent="1" source="QlCUB4jWWU4fkNiN9hsf-20" target="QlCUB4jWWU4fkNiN9hsf-24" edge="1">
          <mxGeometry width="50" height="50" relative="1" as="geometry">
            <mxPoint x="420" y="460" as="sourcePoint" />
            <mxPoint x="470" y="410" as="targetPoint" />
            <Array as="points">
              <mxPoint x="320" y="420" />
              <mxPoint x="120" y="420" />
            </Array>
          </mxGeometry>
        </mxCell>
        <mxCell id="U4evvgoyGGCmxNKXx5C2-4" value="Yes" style="edgeLabel;html=1;align=center;verticalAlign=middle;resizable=0;points=[];labelBackgroundColor=#FFFFFF;fontFamily=Figtree;fontSource=https%3A%2F%2Ffonts.googleapis.com%2Fcss%3Ffamily%3DFigtree;fontSize=8;" parent="1" vertex="1" connectable="0">
          <mxGeometry x="638" y="391" as="geometry">
            <mxPoint x="-319" y="42" as="offset" />
          </mxGeometry>
        </mxCell>
        <mxCell id="U4evvgoyGGCmxNKXx5C2-5" value="No" style="edgeLabel;html=1;align=center;verticalAlign=middle;resizable=0;points=[];labelBackgroundColor=#FFFFFF;fontFamily=Figtree;fontSize=8;fontSource=https%3A%2F%2Ffonts.googleapis.com%2Fcss%3Ffamily%3DFigtree;" parent="1" vertex="1" connectable="0">
          <mxGeometry x="170" y="153" as="geometry">
            <mxPoint x="126" y="266" as="offset" />
          </mxGeometry>
        </mxCell>
        <mxCell id="U4evvgoyGGCmxNKXx5C2-6" value="" style="endArrow=classic;html=1;rounded=1;exitX=0.5;exitY=1;exitDx=0;exitDy=0;entryX=0;entryY=0.5;entryDx=0;entryDy=0;curved=0;" parent="1" source="QlCUB4jWWU4fkNiN9hsf-24" target="QlCUB4jWWU4fkNiN9hsf-20" edge="1">
          <mxGeometry width="50" height="50" relative="1" as="geometry">
            <mxPoint x="300" y="480" as="sourcePoint" />
            <mxPoint x="350" y="430" as="targetPoint" />
            <Array as="points">
              <mxPoint x="120" y="530" />
              <mxPoint x="20" y="530" />
              <mxPoint x="20" y="365" />
            </Array>
          </mxGeometry>
        </mxCell>
        <mxCell id="U4evvgoyGGCmxNKXx5C2-7" value="" style="endArrow=classic;html=1;rounded=1;exitX=0.5;exitY=1;exitDx=0;exitDy=0;entryX=1;entryY=0.5;entryDx=0;entryDy=0;curved=0;" parent="1" source="QlCUB4jWWU4fkNiN9hsf-27" target="QlCUB4jWWU4fkNiN9hsf-24" edge="1">
          <mxGeometry width="50" height="50" relative="1" as="geometry">
            <mxPoint x="190" y="560" as="sourcePoint" />
            <mxPoint x="240" y="510" as="targetPoint" />
            <Array as="points">
              <mxPoint x="320" y="650" />
              <mxPoint x="220" y="650" />
              <mxPoint x="220" y="480" />
            </Array>
          </mxGeometry>
        </mxCell>
        <mxCell id="U4evvgoyGGCmxNKXx5C2-8" value="No" style="edgeLabel;html=1;align=center;verticalAlign=middle;resizable=0;points=[];labelBackgroundColor=#FFFFFF;fontFamily=Figtree;fontSize=8;fontSource=https%3A%2F%2Ffonts.googleapis.com%2Fcss%3Ffamily%3DFigtree;" parent="1" vertex="1" connectable="0">
          <mxGeometry x="168" y="383" as="geometry">
            <mxPoint x="126" y="266" as="offset" />
          </mxGeometry>
        </mxCell>
        <mxCell id="U4evvgoyGGCmxNKXx5C2-9" value="" style="endArrow=classic;html=1;rounded=1;exitX=0.5;exitY=1;exitDx=0;exitDy=0;entryX=0;entryY=0.5;entryDx=0;entryDy=0;curved=0;" parent="1" source="QlCUB4jWWU4fkNiN9hsf-17" target="QlCUB4jWWU4fkNiN9hsf-32" edge="1">
          <mxGeometry width="50" height="50" relative="1" as="geometry">
            <mxPoint x="450" y="540" as="sourcePoint" />
            <mxPoint x="500" y="490" as="targetPoint" />
            <Array as="points">
              <mxPoint x="540" y="530" />
              <mxPoint x="640" y="530" />
            </Array>
          </mxGeometry>
        </mxCell>
        <mxCell id="U4evvgoyGGCmxNKXx5C2-10" value="" style="endArrow=classic;html=1;rounded=1;exitX=0.5;exitY=1;exitDx=0;exitDy=0;entryX=0;entryY=0.5;entryDx=0;entryDy=0;curved=0;" parent="1" source="QlCUB4jWWU4fkNiN9hsf-17" target="QlCUB4jWWU4fkNiN9hsf-13" edge="1">
          <mxGeometry width="50" height="50" relative="1" as="geometry">
            <mxPoint x="260" y="550" as="sourcePoint" />
            <mxPoint x="310" y="500" as="targetPoint" />
            <Array as="points">
              <mxPoint x="540" y="530" />
              <mxPoint x="440" y="530" />
              <mxPoint x="440" y="365" />
            </Array>
          </mxGeometry>
        </mxCell>
        <mxCell id="U4evvgoyGGCmxNKXx5C2-11" value="&lt;font style=&quot;font-size: 8px;&quot; color=&quot;#000000&quot;&gt;No:&amp;nbsp;&lt;/font&gt;&lt;div&gt;&lt;font style=&quot;font-size: 8px;&quot; color=&quot;#000000&quot;&gt;return to&amp;nbsp;&lt;/font&gt;&lt;div style=&quot;font-size: 8px;&quot;&gt;&lt;font style=&quot;font-size: 8px;&quot; color=&quot;#000000&quot;&gt;development&lt;/font&gt;&lt;/div&gt;&lt;/div&gt;" style="edgeLabel;html=1;align=center;verticalAlign=middle;resizable=0;points=[];labelBackgroundColor=#FFFFFF;fontColor=#FFFFFF;fontSize=8;fontFamily=Figtree;fontSource=https%3A%2F%2Ffonts.googleapis.com%2Fcss%3Ffamily%3DFigtree;" parent="1" vertex="1" connectable="0">
          <mxGeometry x="506" y="390" as="geometry">
            <mxPoint x="-16" y="139" as="offset" />
          </mxGeometry>
        </mxCell>
        <mxCell id="U4evvgoyGGCmxNKXx5C2-12" value="No" style="edgeLabel;html=1;align=center;verticalAlign=middle;resizable=0;points=[];labelBackgroundColor=#FFFFFF;fontFamily=Figtree;fontSize=8;fontSource=https%3A%2F%2Ffonts.googleapis.com%2Fcss%3Ffamily%3DFigtree;" parent="1" vertex="1" connectable="0">
          <mxGeometry x="443" y="264" as="geometry">
            <mxPoint x="126" y="266" as="offset" />
          </mxGeometry>
        </mxCell>
        <mxCell id="U4evvgoyGGCmxNKXx5C2-13" value="" style="endArrow=classic;html=1;rounded=1;exitX=0.5;exitY=1;exitDx=0;exitDy=0;curved=0;" parent="1" source="QlCUB4jWWU4fkNiN9hsf-42" edge="1">
          <mxGeometry width="50" height="50" relative="1" as="geometry">
            <mxPoint x="390" y="680" as="sourcePoint" />
            <mxPoint x="440" y="520" as="targetPoint" />
            <Array as="points">
              <mxPoint x="540" y="750" />
              <mxPoint x="440" y="750" />
            </Array>
          </mxGeometry>
        </mxCell>
        <mxCell id="U4evvgoyGGCmxNKXx5C2-14" value="&lt;font style=&quot;font-size: 8px;&quot; color=&quot;#000000&quot;&gt;No:&amp;nbsp;&lt;/font&gt;&lt;div&gt;&lt;font style=&quot;font-size: 8px;&quot; color=&quot;#000000&quot;&gt;return to&amp;nbsp;&lt;/font&gt;&lt;div style=&quot;font-size: 8px;&quot;&gt;&lt;font style=&quot;font-size: 8px;&quot; color=&quot;#000000&quot;&gt;development&lt;/font&gt;&lt;/div&gt;&lt;/div&gt;" style="edgeLabel;html=1;align=center;verticalAlign=middle;resizable=0;points=[];labelBackgroundColor=#FFFFFF;fontColor=#FFFFFF;fontSize=8;fontFamily=Figtree;fontSource=https%3A%2F%2Ffonts.googleapis.com%2Fcss%3Ffamily%3DFigtree;" parent="1" vertex="1" connectable="0">
          <mxGeometry x="506" y="609" as="geometry">
            <mxPoint x="-16" y="139" as="offset" />
          </mxGeometry>
        </mxCell>
        <mxCell id="U4evvgoyGGCmxNKXx5C2-15" value="" style="endArrow=classic;html=1;rounded=1;exitX=0.5;exitY=1;exitDx=0;exitDy=0;entryX=1;entryY=0.5;entryDx=0;entryDy=0;curved=0;" parent="1" source="QlCUB4jWWU4fkNiN9hsf-42" target="QlCUB4jWWU4fkNiN9hsf-36" edge="1">
          <mxGeometry width="50" height="50" relative="1" as="geometry">
            <mxPoint x="390" y="620" as="sourcePoint" />
            <mxPoint x="440" y="570" as="targetPoint" />
            <Array as="points">
              <mxPoint x="540" y="750" />
              <mxPoint x="640" y="750" />
              <mxPoint x="640" y="590" />
            </Array>
          </mxGeometry>
        </mxCell>
        <mxCell id="U4evvgoyGGCmxNKXx5C2-16" value="&lt;font style=&quot;font-size: 8px;&quot; color=&quot;#000000&quot;&gt;No:&amp;nbsp;&lt;/font&gt;&lt;div&gt;&lt;font style=&quot;font-size: 8px;&quot; color=&quot;#000000&quot;&gt;return to&amp;nbsp;&lt;/font&gt;&lt;div style=&quot;font-size: 8px;&quot;&gt;&lt;font color=&quot;#000000&quot;&gt;review&lt;/font&gt;&lt;/div&gt;&lt;/div&gt;" style="edgeLabel;html=1;align=center;verticalAlign=middle;resizable=0;points=[];labelBackgroundColor=#FFFFFF;fontColor=#FFFFFF;fontSize=8;fontFamily=Figtree;fontSource=https%3A%2F%2Ffonts.googleapis.com%2Fcss%3Ffamily%3DFigtree;" parent="1" vertex="1" connectable="0">
          <mxGeometry x="596" y="610" as="geometry">
            <mxPoint x="-16" y="139" as="offset" />
          </mxGeometry>
        </mxCell>
      </root>
    </mxGraphModel>
  </diagram>
</mxfile>
